<?xml version="1.0" encoding="utf-8"?>
<!-- Generator: Adobe Illustrator 26.1.0, SVG Export Plug-In . SVG Version: 6.00 Build 0)  -->
<svg version="1.1" id="Layer_1" xmlns="http://www.w3.org/2000/svg" xmlns:xlink="http://www.w3.org/1999/xlink" x="0px" y="0px"
	 viewBox="0 0 250.67 184.67" style="enable-background:new 0 0 250.67 184.67;" xml:space="preserve">
<style type="text/css">
	.st0{fill:#D1D3D4;}
	.st1{fill:#414042;}
	.st2{fill:#FCCEA4;}
	.st3{fill-rule:evenodd;clip-rule:evenodd;fill:#FFFFFF;}
	.st4{fill:#FFFFFF;}
	.st5{stroke:#000000;stroke-width:4;stroke-miterlimit:10;}
	.st6{fill:#2D2D2D;}
	.st7{fill:#545554;}
	.st8{font-family:'SegoeUI-Semilight';}
	.st9{font-size:15.6996px;}
	.st10{letter-spacing:3;}
	.st11{font-family:'SegoeUI-Semibold';}
	.st12{font-size:11.5131px;}
	.st13{fill:none;stroke:#2D2D2D;stroke-width:2;stroke-miterlimit:10;}
</style>
<rect x="-9" y="-4051" class="st0" width="4000" height="4000"/>
<rect x="-9" y="-4051" class="st1" width="4000" height="2000"/>
<g>
	<g>
		<g>
			<path class="st2" d="M1659.33-2830.36c-6.92,0.77-8.93,2.13-12.84,8.62c-4.1,6.9-7.57,13.17-12.7,23.24
				c-0.98,1.93-1.3,3.19-1.3,5.77v12.95c0,8.96,0.87,9.39,9.86,10.4v3.55h-32.03v-3.55c8.71-1.12,9.45-1.4,9.45-10.4v-12.56
				c0-2.23-0.42-3.24-1.48-5.26c-3.26-6.4-7.02-13.27-13.08-23.86c-3.95-6.92-5.34-8.24-11.78-8.91v-3.54h28.96v3.54
				c-7.2,0.98-6.92,2.34-5.1,5.97c3.79,7.25,8.44,15.99,12.56,23.71c3.36-6.27,8.72-16.8,11.65-22.97c2.13-4.56,1.48-5.81-6.32-6.71
				v-3.54h24.15V-2830.36z"/>
			<path class="st2" d="M1717.62-2835.37c18.86,0,34.74,13.99,34.74,34.69c0,22.38-15.69,36.41-35.31,36.41
				c-20.65,0-35.65-15.29-35.65-35.32C1681.4-2817.78,1694.36-2835.37,1717.62-2835.37z M1715.86-2831.02
				c-11.05,0-19.89,10.25-19.89,29.15c0,18.32,8.3,33.21,22.69,33.21c10.9,0,19.28-9.56,19.28-29.09
				C1737.94-2818.92,1728.56-2831.02,1715.86-2831.02z"/>
			<path class="st2" d="M1854.67-2830.36c-6.67,0.56-8.67,2.43-9.01,6.57c-0.24,2.88-0.45,6.74-0.45,14.88v12.88
				c0,9.59-1.39,18.37-7.4,24.69c-4.86,5.06-12.18,7.04-19.54,7.04c-6.62,0-13.38-1.39-18.19-5.22c-6.15-4.68-9.12-11.36-9.12-23.28
				v-26.57c0-9.56-0.91-10.26-9.01-10.99v-3.54h30.67v3.54c-8.04,0.66-8.94,1.43-8.94,10.99v27.27c0,12.97,6.27,20.94,17.95,20.94
				c13.3,0,18.5-9.22,18.5-25.51v-12.25c0-8.07-0.32-11.91-0.53-14.94c-0.38-4.78-3.13-6.08-10.61-6.5v-3.54h25.68V-2830.36z"/>
			<path class="st2" d="M1945.54-2765.13c-0.88,0-2.11-0.04-3.4-0.14c-11.32-0.59-15.27-3.12-18.92-8.26
				c-4.08-5.61-7.38-12.08-10.86-18.03c-1.75-3.01-3.18-3.64-7.23-3.64l-2.64-0.07v15.69c0,8.63,1.08,9.29,9.12,10.19v3.55h-30.62
				v-3.55c8.22-0.87,9.08-1.57,9.08-10.19v-40.7c0-8.49-1.08-9.35-9.08-10.09v-3.54h29.09c8.73,0,14,1.01,18.18,3.83
				c4.22,2.79,7.05,7.43,7.05,13.89c0,9.21-6.03,14.39-13.24,17.33c1.68,3.18,5.91,10.06,9.05,14.84c3.74,5.69,5.94,8.44,8.07,10.85
				c2.56,2.83,4.15,3.78,6.97,4.68L1945.54-2765.13z M1906.08-2799.3c4.84,0,8.29-0.77,10.71-2.83c3.68-2.97,5.21-7.02,5.21-12.47
				c0-11.14-6.75-15.15-13.39-15.15c-2.9,0-4.41,0.42-5.07,1.05c-0.81,0.66-1.05,1.85-1.05,4.16v25.25H1906.08z"/>
			<path class="st2" d="M2086-2830.36c-6.5,0.8-8.56,2.05-8.88,6.8c-0.24,3.83-0.52,7.68-0.52,17.01v41.79h-5.2l-44.07-53.2v24.55
				c0,9.22,0.25,13.52,0.53,16.56c0.34,4.86,2.69,6.98,10.37,7.47v3.55h-25.79v-3.55c6.15-0.52,8.73-2.09,9.29-7.09
				c0.38-3.62,0.59-7.72,0.59-16.98v-25.48c0-3.27-0.21-5.36-2.16-7.93c-1.92-2.62-4.32-3.04-8.98-3.5v-3.54h18.77l41.47,48.59
				v-21.23c0-9.33-0.14-13.15-0.46-16.77c-0.31-4.58-2.24-6.52-10.83-7.04v-3.54H2086V-2830.36z"/>
			<path class="st2" d="M2148.82-2765.83v-3.55c6.67-0.91,6.96-2.02,5.5-6.34c-1.16-3.47-2.98-8.37-4.77-13.4h-21.19
				c-1.34,3.76-2.84,7.78-4.03,11.39c-2.23,6.67-0.09,7.51,8.29,8.35v3.55h-25.28v-3.55c6.6-0.84,8.28-1.71,11.87-10.72l21.75-54.43
				l4.44-0.83c6.67,18.11,13.82,37.16,20.56,54.86c3.69,9.52,4.64,10.29,11.66,11.13v3.55H2148.82z M2139.16-2817.91
				c-3.14,8.05-6.3,15.95-9.1,23.81h17.68L2139.16-2817.91z"/>
			<path class="st2" d="M2257.98-2765.83v-3.55c8.17-0.84,8.63-1.53,8.59-11.58l-0.03-41.5c-7.9,18.42-18.12,41.83-24.3,56.63h-3.2
				c-5.67-14.43-14.65-37.17-22.33-55.72c-1.51,34.2-1.54,41.32-1.54,44.47c0.1,5.73,2.38,6.97,9.98,7.71v3.55h-25.57v-3.55
				c6.01-0.56,8.66-1.75,9.49-7.81c0.5-3.66,0.8-8.85,3.32-44.7c0.35-5.17-0.5-7.63-9.58-8.47v-3.54h21.08l21.24,48.6l21.89-48.6
				h20.78v3.54c-8.6,0.91-9.62,1.79-9.41,9.8l0.69,39.6c0.21,10.05,0.6,10.5,9.33,11.58v3.55H2257.98z"/>
			<path class="st2" d="M2374.08-2783.23c-0.56,2.79-3.46,14.39-4.43,17.4h-53.14v-3.48c9.6-0.87,10.27-1.54,10.27-10.26v-40.48
				c0-9.05-1.22-9.64-8.6-10.31v-3.54h33.34c10.59,0,14.4-0.1,15.8-0.21c0.1,2.14,0.59,10.47,1.01,16.64l-3.75,0.52
				c-0.94-3.56-2.46-7.12-4.03-9.12c-1.81-2.57-3.54-3.24-9.21-3.24h-7.91c-3.72,0-4.07,0.25-4.07,3.62v22.33h10.74
				c6.56,0,7.42-1.57,8.89-8.9h3.79v22.73h-3.79c-1.56-7.68-2.4-8.86-8.99-8.86h-10.64v19c0,7.26,0.95,8.91,7,9.02h8.24
				c6.05,0,7.43-0.81,9.74-3.6c2.4-2.74,4.53-6.76,6.13-10.18L2374.08-2783.23z"/>
		</g>
		<g>
			<path class="st2" d="M1870.58-2712.55c5.95-2.42,12.32-7.72,15.69-13.62c1.55-2.72,2.44-6.64,0.05-9.35
				c-6.88-7.84-27.54-6.1-38.42-3.03c-6.45,1.82-13.41,4.67-16.35,10.09c-2.64,4.88,0.46,10.69,3.2,13.18
				c4.51,4.08,11.66,5.81,18.19,7.82c9.46,2.91,19.86,6.26,23.47,15.55c4.83-1.92,7.6-2.59,7.63-2.5c0.11,0.29-2.55,1.32-7.26,3.58
				c0.57,1.8,0.9,3.81,0.93,6.07c0.08,4.73-1.01,8.8-2.24,12.46c-3.2,9.5-10.84,16.47-20.82,19.05c-7.39,1.92-16.51,0.87-18.23-5.25
				c-1.17-4.34,1.62-7.95,3.56-10.26c3.41-4.05,8.19-7.61,12.36-10.43c3.46-2.34,6.85-4.33,9.92-6.01c4.13-2.25,7.8-4.01,10.9-5.36
				c-5.07-12.63-25.61-12.66-37.5-19.89c-3.95-2.4-7.23-6.1-8.26-11.39c-1.38-7.07,3.21-11.64,7.3-14.36
				c9.32-6.21,25.89-9.59,41.07-6.66c6.13,1.18,13.2,3.61,14.14,10.02c0.46,3.2-0.83,5.7-2.04,7.63
				c-2.83,4.52-7.45,8.46-11.54,10.82c-1.26,0.73-7.51,3.46-7.67,2.63C1868.65-2711.86,1869.34-2712.04,1870.58-2712.55z
				 M1863.2-2683.55c-5.91,3.51-12.32,7.8-17.57,12.65c-2.16,1.99-4.41,4.31-5.76,7.07c-0.92,1.9-1.42,4.37,0.1,6.07
				c2.7,3.06,9.22,2.82,13.9,1.56c11.09-3.01,17.97-11.28,20.04-23.34c0.66-3.86,0.5-7.05-0.29-9.72
				C1870.65-2687.77,1867.15-2685.89,1863.2-2683.55z"/>
			<path class="st2" d="M1887.9-2699.7c-0.12,3.85-0.89,10.68,0.62,13.62c0.22,0.11,0.53,0.16,0.86,0.16c2.02,0,3.77-1.45,5.12-2.45
				c1.55-1.15,2.89-2.39,3.95-3.42c2.13-2.07,3.35-3.51,3.73-3.3c0.38,0.21-0.14,2.12-1.98,4.78c-1.82,2.65-4.67,5.78-8.25,7.24
				c-2.81,1.16-5.84,0.31-6.81-1.97c-2.09-4.94-0.05-13.41,1.45-17.24C1887.98-2705.77,1887.95-2701.23,1887.9-2699.7z
				 M1885.71-2709.62c0.72-0.77,4.82-2.95,5.85-1.04c0.7,1.3-1.54,2.59-2.55,2.96C1887.19-2707.03,1883.68-2707.46,1885.71-2709.62z
				"/>
			<path class="st2" d="M1905.41-2691.22c0.92-0.01,1.65-0.51,2.44-0.95c4.05-2.3,7.01-5.66,10.76-8.33
				c0.39-0.3,1.03-0.73,1.92-0.58c0.32,0.15,0.66,0.41,1.01,0.77c1.27,3.66,2.04,8.03,2.35,12.63c2.18-1.86,4.4-3.62,6.6-5.22
				c0.69-0.51,3.94-2.83,4.17-2.49c0.16,0.23-2.76,2.77-3.44,3.39c-2.32,2.15-4.76,4.46-7.2,6.88c0.36,11.32-1.89,23.47-6.09,29.64
				c-1.81,2.65-5.21,5.56-9.72,3.92c-3.98-1.38-6.71-5.03-5.11-10.42c1.58-5.42,5.36-9.91,8.56-13.58c2.78-3.19,5.8-6.28,8.93-9.17
				c-0.02-4.38-0.38-8.66-1.28-12.32c-3.35,2.46-6.26,5.42-10.05,7.45c-1.27,0.69-3.25,1.7-5.12,0.98c-2.71-1.09-3.72-4.26-2.8-7.82
				c1.41-5.41,5.1-10.03,9.13-12.7c2.11-1.4,5.63-2.62,7.99-0.48c0.66,0.61,1.09,1.3,1.37,1.88c0.84,1.74,0.72,2.79,0.66,2.81
				c0,0-1.93-3.18-2.77-3.77c-2.07-1.47-4.83,0.04-6.19,1.07c-3.32,2.52-6.64,6.96-7.68,11.8c-0.12,0.6-0.22,1.2-0.22,1.79
				C1903.63-2692.68,1904.11-2691.26,1905.41-2691.22z M1913.7-2673.84c-2.73,3.37-13.32,16.05-4.41,19.21
				c2.91,0.95,4.69-1.02,5.86-2.73c3.35-4.91,4.61-12.46,5.17-19.95c0.11-1.4,0.18-2.82,0.23-4.24
				C1918.15-2679.05,1915.83-2676.46,1913.7-2673.84z"/>
			<path class="st2" d="M1937.16-2704.52c0.95,0.28-3.58,15.7-0.25,16.28c0,0-0.05-0.04,0.11-0.05c1.11-0.28,1.99-1.03,2.98-1.72
				c4.49-3.17,8.6-6.99,13.51-9.83c1.89-1.11,6.15-3.56,8.58-1.02c2.42,2.7,0.66,7.98,1.31,12.28c0.09,0.55,0.21,1.27,0.53,1.5
				c0.72,0.73,2.72-0.34,3.37-0.64c2.91-1.4,7.2-4.61,8.99-5.87c3.04-2.14,3.32-1.77,0.83,0.94c-2.09,2.28-6.88,7-11.03,8.31
				c-1.4,0.47-3.11,0.23-4.02-0.49c-2.83-2.38-1.44-7.66-2.01-12.28c-0.04-0.32-0.21-1.4-0.4-1.39c-0.01,0,0,0,0.02,0.01
				c0.02,0.01,0,0.01,0,0.01c-0.57-0.11-1.18,0.11-1.68,0.28c-3.59,1.22-6.73,3.89-9.58,5.99c-3.01,2.23-5.88,4.77-9.44,6.36
				c-0.36,0.17-0.79,0.33-1.28,0.44c-3.09,0.89-4.65-2.41-4.65-5.19C1933.03-2694.07,1936.11-2704.83,1937.16-2704.52z"/>
			<path class="st2" d="M1994.4-2700.08c-4.03-1.44-8.56,1.64-10.63,3.8c-1.09,1.15-2.83,3.25-1.08,4.98
				c1.51,1.37,4.9-1.44,5.96-2.15c1.51-1.01,2.95-2.2,4.95-2.72c3.89-1.16,3.44,4.13,5.13,5.96c0.78,0.86,2.82,0.88,4.36,0.75
				c4.74-0.42,8.92-2.61,12.1-4.33c2.09-1.13,2.43-0.87,0.67,0.9c-2.76,2.79-7.29,5.47-12.41,6.3c-3.55,0.58-6.68-0.25-7.95-2.66
				c-0.63-1.19-0.82-2.19-1.3-3.3c-0.04-0.09-0.08-0.17-0.11-0.24c-1.26,0.4-2.52,1.52-3.54,2.2c-2.3,1.54-7.02,4.91-10.2,1.63
				c-1.55-1.56-2.1-4.34-0.84-6.69c1.72-3.16,5.09-5.33,8.77-6.28c3.24-0.85,6.47-0.25,7.95,1.66c0.68,0.89,0.66,1.51,0.55,1.57
				C1996.67-2698.62,1995.06-2699.85,1994.4-2700.08z M1994.42-2692.87c-0.01,0-0.03,0.01-0.04,0.01
				C1994.4-2692.86,1994.42-2692.86,1994.42-2692.87z"/>
			<path class="st2" d="M2016.33-2716.94c0.44-0.03,1.06-0.06,1.82-0.09c0.18-1.62,0.46-4.14,0.92-8.47
				c0.38-3.57,0.61-5.63,0.92-5.64c0.85-0.02,0.85,6.23,0.52,14.01c7.81-0.32,22.12-0.75,22.12-0.08c0,0.27-14.4,0.87-22.17,1.22
				c-0.54,12.03-1.75,27.08-1.81,28.61c-0.14,3.81-0.45,8.38,0.86,11.14c1.3,2.61,6.44-3.62,7.32-4.63
				c2.54-2.93,10.83-14.25,11.32-13.94c0.93,0.58-6.95,12.83-9.16,15.71c-1.72,2.24-4.01,5.2-6.93,6.45
				c-8.16,3.6-7.08-13.05-6.49-20.65c0.35-4.47,0.85-8.98,1.29-12.86c0.89-7.72,0.83-6.85,1.16-9.7c-0.67,0.03-1.22,0.06-1.62,0.09
				c-4.22,0.25-26.22,1.82-26.26,1.32C1990.09-2715.12,2011.63-2716.67,2016.33-2716.94z"/>
			<path class="st2" d="M2057.04-2702.94c4.86,1.06-0.04,10.76,2.61,12.93c3.18,2.6,18.4-5.85,19.08-4.72
				c0.93,1.55-17.63,12.19-21.61,6.28c-3.02-4.49,2.05-13.25-2.49-9.11c-2.73,2.49-5.94,5.38-9.19,7.54
				c-3.06,2.04-8.25,2.26-9.06-2.19c-0.88-4.83,0.62-12.94,2.77-12.76c4.36,0.37-2.39,12.5,1.47,13.02
				C2045.92-2691.21,2053.39-2703.74,2057.04-2702.94z"/>
			<path class="st2" d="M2090.95-2694c-2.83,0.63-6.36,1.27-9.24,0.18c-2.39-0.93-4.08-3.16-4.81-5.55
				c-1.28-4.28,2.13-8.71,5.31-9.77c2.57-0.9,3.64,1.55,3.32,4.08c-0.38,2.94-1.36,6.17-3.05,8.06c2.99,1.18,7.33-0.57,11.46-0.9
				c0.99-0.09,1.72,0.03,2.49,0.45c0.45,0.53,1.26,1.17,1.05,1.91c-0.33,1.13-8.92,25.78,0.72,18.19
				c7.53-5.93,18.58-18.32,18.82-18.14c0.36,0.27-8.53,14.52-17.67,21.63c-14.32,11.14-7.31-17.06-5.66-20.77
				C2092.76-2694.54,2091.78-2694.18,2090.95-2694z M2083.24-2707.04c-1.84-0.18-4.56,4.61-3.66,6.78c0.48,1.3,1.15,2.17,1.95,2.74
				c1.16-1.96,1.91-4.96,2.02-7.71c0.02-0.6,0.01-1.39-0.22-1.75c-0.04-0.05-0.06-0.07-0.08-0.08
				C2083.26-2707.04,2083.25-2707.04,2083.24-2707.04z"/>
			<path class="st2" d="M2119.27-2694.46c1.68-1.06,4.46-2.93,5.01-5.32c0.45-1.91-1.12-2.72-2.61-1.84
				c-2.11,1.24-5.67,5.96-3.39,9.37c5.12,8.42,22.07-2.74,22.07-2.74c0,1.44-12.36,10.7-21,7.59c-2.57-0.93-5.13-3.28-5.13-7.06
				c0.03-4.61,2.83-8.23,5.91-9.91c3.29-1.79,6.82,0.34,6.86,3.63c0,3.41-3.17,5.52-5.32,6.43c-0.9,0.39-1.64,0.55-2.18,0.58
				C2118.28-2693.65,2118.58-2694.03,2119.27-2694.46z"/>
		</g>
		<g>
			<g>
				<line class="st2" x1="2163.58" y1="-2693.43" x2="2369.65" y2="-2693.43"/>
				<rect x="2163.58" y="-2696.42" class="st2" width="206.07" height="5.98"/>
			</g>
			<g>
				<line class="st2" x1="1597.86" y1="-2693.43" x2="1804.79" y2="-2693.43"/>
				<rect x="1597.86" y="-2696.42" class="st2" width="206.93" height="5.98"/>
			</g>
		</g>
	</g>
	<path class="st2" d="M1805.75-2931.22c8.04-17.46,18.51-33.89,21.48-53.51c0.34-2.24,1.62-5.3,3.38-6.22
		c13.48-7.02,20.03-20.34,29.25-31.23c13.54-15.99,27.99-30.98,48.07-38.91c12.55-4.96,25.44-6.9,38.22-1.45
		c15.7,6.69,20.95,21.64,13.64,37.03c-6.99,14.72-19.15,24.47-32.27,33.2c-21.19,14.1-43.97,23.26-71.78,20.65
		c3.92,9.11,10.14,13.99,16.33,18.47c16.85,12.21,36.37,17.85,56.48,21.82c37.6,7.42,75.67,7.75,113.72,6.58
		c27.14-0.83,54.25-3.1,81.35-5c24.6-1.72,49.18-3.86,73.77-5.73c30.46-2.31,60.9-5.39,91.41-6.58
		c35.08-1.37,70.24-0.46,104.02,10.91c13.07,4.4,26.19,9.79,31.2,24.74c4.59,13.68-6.28,29.55-20.64,30.56
		c-5.38,0.38-10.15-1.55-11.59-6.26c-1.04-3.41,0.62-8,2.05-11.69c0.9-2.32,3.53-4.04,5.54-5.84c4.79-4.3,4.95-7.99-0.88-10.31
		c-8.74-3.49-17.85-6.86-27.09-8.13c-19.02-2.61-38.24-5.4-57.35-5.2c-30.91,0.33-61.82,2.64-92.68,4.81
		c-25.71,1.8-51.34,4.77-77.03,6.9c-34.06,2.82-68.11,6.47-102.23,7.62c-28.69,0.97-57.5-0.75-86.23-1.93
		c-22.49-0.93-44.35-5.68-65.56-13.33c-18.62-6.72-35.2-16.5-48.18-31.76c-0.56-0.65-1.32-1.13-2.69-2.27
		c-5.82,11.61-11.3,22.89-17.08,34.02c-5.6,10.78-11.33,21.51-17.36,32.05c-1.99,3.47-4.81,6.62-7.77,9.34
		c-8.27,7.59-13.94,4.12-16.36-5.62c-1.59-6.43-0.88-13.46-0.94-20.22c-0.04-4.49,0.36-8.99,0.63-14.89
		c-6.29,2.56-11.46,5.05-16.88,6.79c-13.51,4.34-26.89,9.66-40.76,12.2c-31.75,5.82-40.56-14.47-41.2-37.26
		c-0.5-17.71,2.41-35.55,4.33-53.28c1.63-15.04,4.05-30,6.01-45c0.26-1.99,0.13-4.11-0.21-6.1c-1.37-8-6.37-10.81-12.25-5.31
		c-12.01,11.22-23.98,22.85-33.92,35.86c-25,32.73-48.56,66.55-73.32,99.46c-9.46,12.58-19.23,25.2-33.19,33.62
		c-10.85,6.54-20.19,3.91-25.2-7.86c-4.56-10.72-5.45-22.18-3.77-33.36c3.39-22.52,7.69-44.92,12.15-67.26
		c1.03-5.17,3.63-10.3,6.59-14.72c3.07-4.58,8.07-6.71,13.69-4.32c5.83,2.48,4.79,7.34,3.72,12.17
		c-4.54,20.49-9.48,40.92-13.33,61.54c-1.9,10.21-1.75,20.8-2.53,31.22c0.82,0.25,1.63,0.51,2.45,0.76
		c6.99-8.12,14.44-15.9,20.9-24.43c22.55-29.75,44.65-59.84,67.12-89.64c13.21-17.51,25.46-36.12,44.47-48.09
		c6.92-4.36,14.91-8.21,22.87-9.49c14.28-2.28,24.94,7.79,24.65,23.66c-0.3,16.42-2.7,32.81-4.35,49.2
		c-2,19.98-4.4,39.93-6.08,59.94c-0.34,4.04,1.25,8.5,2.87,12.38c1.97,4.72,5.98,7.75,11.36,6.76c9.25-1.7,18.77-2.95,27.5-6.22
		c11.37-4.27,22.2-10.09,32.98-15.77c2.58-1.36,5.39-4.6,5.84-7.35c4.47-27.19,7.49-54.65,12.82-81.65
		c7.73-39.2,16.22-78.3,25.87-117.08c12.03-48.33,27.95-95.44,50.34-140.12c12.27-24.49,27.21-47.04,48.21-65.04
		c12.88-11.04,27.08-19.59,44.03-22.93c21.83-4.3,41.42,8.17,46.82,29.87c5.61,22.58,1.53,44.44-4.99,66.06
		c-11.54,38.3-30.62,72.98-52.98,105.77c-26.84,39.37-54.34,78.32-82.48,116.78c-18.02,24.62-38.24,47.62-56.29,72.22
		c-5,6.82-6.57,16.61-8.24,25.31c-1.72,9.01-1.65,18.37-2.36,27.58C1804.49-2931.57,1805.12-2931.39,1805.75-2931.22z
		 M1818.84-3030.93c0.82,0.63,1.63,1.26,2.45,1.9c1.13-1.9,2.07-3.95,3.42-5.67c16.31-20.81,32.76-41.51,49-62.37
		c29.5-37.89,56.99-77.17,80.96-118.83c14.82-25.76,28.16-52.26,35.45-81.23c3.18-12.65,5.54-25.61,2.93-38.92
		c-3.02-15.43-12.9-23.14-27.98-20.55c-4.58,0.79-9.12,2.73-13.28,4.9c-20.99,10.94-35.25,28.71-47.66,48.16
		c-18.02,28.25-29.7,59.46-39.09,91.25c-13.48,45.65-25.01,91.88-36.99,137.96C1824.33-3060.04,1821.87-3045.41,1818.84-3030.93z
		 M1865.22-2994.14c0.29,0.55,0.57,1.09,0.86,1.64c4.56-0.51,9.17-0.74,13.66-1.57c24.06-4.44,43.01-17.21,57.42-36.62
		c2.07-2.79,3.28-8.7,1.71-11.01c-1.6-2.36-7.58-3.6-10.83-2.63c-8.12,2.43-16.96,4.93-23.38,10.07
		c-11.74,9.41-22.01,20.66-32.72,31.32C1869.36-3000.37,1867.44-2997.1,1865.22-2994.14z"/>
	<path class="st2" d="M2438.02-2894.33c-0.12-11.51,13.41-22.82,24.63-20.58c7.02,1.4,11.35,8.4,9.5,15.38
		c-2.44,9.17-11.9,17.16-21.07,17.79C2444.5-2881.29,2438.09-2887.47,2438.02-2894.33z"/>
</g>
<g>
	<g>
		<path d="M2856.59-1333.85c-6.92,0.77-8.93,2.13-12.84,8.62c-4.1,6.9-7.57,13.17-12.7,23.24c-0.98,1.93-1.3,3.19-1.3,5.77v12.95
			c0,8.96,0.87,9.39,9.86,10.4v3.55h-32.03v-3.55c8.71-1.12,9.45-1.4,9.45-10.4v-12.56c0-2.23-0.42-3.24-1.48-5.26
			c-3.26-6.4-7.02-13.27-13.08-23.86c-3.95-6.92-5.34-8.24-11.78-8.91v-3.54h28.96v3.54c-7.2,0.98-6.92,2.34-5.1,5.97
			c3.79,7.25,8.44,15.99,12.56,23.71c3.36-6.27,8.72-16.8,11.65-22.97c2.13-4.56,1.48-5.81-6.32-6.71v-3.54h24.15V-1333.85z"/>
		<path d="M2914.87-1338.86c18.86,0,34.74,13.99,34.74,34.69c0,22.38-15.69,36.41-35.31,36.41c-20.65,0-35.65-15.29-35.65-35.32
			C2878.66-1321.28,2891.62-1338.86,2914.87-1338.86z M2913.11-1334.51c-11.05,0-19.89,10.25-19.89,29.15
			c0,18.32,8.3,33.21,22.69,33.21c10.9,0,19.28-9.56,19.28-29.09C2935.2-1322.41,2925.81-1334.51,2913.11-1334.51z"/>
		<path d="M3051.92-1333.85c-6.67,0.56-8.67,2.43-9.01,6.57c-0.24,2.88-0.45,6.74-0.45,14.88v12.88c0,9.59-1.39,18.37-7.4,24.69
			c-4.86,5.06-12.18,7.04-19.54,7.04c-6.62,0-13.38-1.39-18.19-5.22c-6.15-4.68-9.12-11.36-9.12-23.27v-26.57
			c0-9.56-0.91-10.26-9.01-10.99v-3.54h30.67v3.54c-8.04,0.66-8.94,1.43-8.94,10.99v27.27c0,12.97,6.27,20.94,17.95,20.94
			c13.3,0,18.5-9.22,18.5-25.51v-12.25c0-8.07-0.32-11.91-0.53-14.94c-0.38-4.78-3.13-6.09-10.61-6.5v-3.54h25.68V-1333.85z"/>
		<path d="M3142.8-1268.63c-0.88,0-2.11-0.04-3.4-0.14c-11.32-0.59-15.27-3.12-18.92-8.26c-4.08-5.61-7.38-12.08-10.86-18.03
			c-1.75-3.01-3.18-3.64-7.23-3.64l-2.64-0.07v15.69c0,8.63,1.08,9.29,9.12,10.19v3.55h-30.62v-3.55c8.22-0.87,9.08-1.57,9.08-10.19
			v-40.7c0-8.49-1.08-9.35-9.08-10.09v-3.54h29.09c8.73,0,14,1.01,18.18,3.83c4.22,2.79,7.05,7.43,7.05,13.89
			c0,9.21-6.03,14.39-13.24,17.33c1.68,3.18,5.91,10.06,9.05,14.84c3.74,5.69,5.94,8.44,8.07,10.85c2.56,2.83,4.15,3.78,6.97,4.68
			L3142.8-1268.63z M3103.34-1302.8c4.84,0,8.29-0.77,10.71-2.83c3.68-2.97,5.21-7.02,5.21-12.47c0-11.14-6.75-15.15-13.39-15.15
			c-2.9,0-4.41,0.42-5.07,1.05c-0.81,0.66-1.05,1.85-1.05,4.16v25.25H3103.34z"/>
		<path d="M3283.25-1333.85c-6.5,0.8-8.56,2.05-8.87,6.8c-0.24,3.83-0.52,7.68-0.52,17.01v41.79h-5.2l-44.07-53.2v24.55
			c0,9.22,0.25,13.52,0.53,16.56c0.34,4.86,2.69,6.98,10.37,7.47v3.55h-25.79v-3.55c6.15-0.52,8.73-2.09,9.29-7.09
			c0.38-3.62,0.59-7.72,0.59-16.98v-25.48c0-3.27-0.21-5.36-2.16-7.93c-1.92-2.62-4.32-3.04-8.98-3.5v-3.54h18.77l41.47,48.59
			v-21.23c0-9.33-0.14-13.15-0.45-16.77c-0.31-4.58-2.24-6.52-10.83-7.04v-3.54h25.87V-1333.85z"/>
		<path d="M3346.07-1269.33v-3.55c6.67-0.9,6.96-2.02,5.5-6.34c-1.16-3.47-2.98-8.37-4.77-13.4h-21.19
			c-1.34,3.76-2.84,7.78-4.03,11.39c-2.23,6.67-0.09,7.51,8.29,8.35v3.55h-25.28v-3.55c6.6-0.84,8.28-1.71,11.87-10.72l21.75-54.43
			l4.44-0.83c6.67,18.11,13.82,37.16,20.56,54.86c3.69,9.52,4.64,10.29,11.66,11.13v3.55H3346.07z M3336.42-1321.4
			c-3.14,8.05-6.3,15.95-9.1,23.81H3345L3336.42-1321.4z"/>
		<path d="M3455.24-1269.33v-3.55c8.17-0.84,8.63-1.53,8.59-11.58l-0.03-41.5c-7.9,18.42-18.12,41.83-24.3,56.63h-3.2
			c-5.67-14.43-14.65-37.17-22.33-55.72c-1.51,34.2-1.54,41.32-1.54,44.47c0.1,5.73,2.38,6.97,9.98,7.71v3.55h-25.57v-3.55
			c6.01-0.56,8.66-1.75,9.49-7.81c0.5-3.66,0.8-8.85,3.32-44.7c0.35-5.17-0.5-7.63-9.58-8.47v-3.54h21.08l21.24,48.6l21.89-48.6
			h20.78v3.54c-8.6,0.91-9.62,1.79-9.41,9.8l0.69,39.6c0.21,10.05,0.6,10.5,9.33,11.58v3.55H3455.24z"/>
		<path d="M3571.34-1286.73c-0.56,2.79-3.46,14.39-4.43,17.4h-53.14v-3.48c9.6-0.87,10.27-1.54,10.27-10.26v-40.48
			c0-9.05-1.22-9.64-8.6-10.31v-3.54h33.34c10.59,0,14.4-0.1,15.8-0.21c0.1,2.14,0.59,10.47,1.01,16.64l-3.75,0.52
			c-0.94-3.56-2.46-7.12-4.03-9.12c-1.81-2.57-3.54-3.24-9.21-3.24h-7.91c-3.72,0-4.07,0.25-4.07,3.62v22.33h10.74
			c6.56,0,7.42-1.57,8.89-8.9h3.79v22.73h-3.79c-1.56-7.68-2.4-8.86-8.99-8.86h-10.64v19c0,7.26,0.95,8.91,7,9.02h8.24
			c6.05,0,7.43-0.81,9.74-3.6c2.4-2.74,4.53-6.76,6.13-10.18L3571.34-1286.73z"/>
	</g>
	<g>
		<path d="M3067.83-1216.04c5.95-2.42,12.32-7.72,15.69-13.62c1.55-2.72,2.44-6.64,0.05-9.35c-6.88-7.84-27.54-6.1-38.42-3.03
			c-6.45,1.82-13.41,4.67-16.35,10.09c-2.64,4.88,0.46,10.69,3.2,13.18c4.51,4.08,11.66,5.81,18.19,7.82
			c9.46,2.91,19.86,6.26,23.47,15.55c4.83-1.92,7.6-2.59,7.63-2.5c0.11,0.29-2.55,1.32-7.26,3.58c0.57,1.8,0.9,3.81,0.94,6.07
			c0.08,4.73-1.01,8.8-2.24,12.46c-3.2,9.5-10.84,16.47-20.82,19.05c-7.39,1.92-16.51,0.87-18.23-5.25
			c-1.17-4.34,1.62-7.95,3.56-10.26c3.41-4.05,8.19-7.61,12.36-10.43c3.46-2.34,6.85-4.33,9.92-6.01c4.13-2.25,7.8-4.01,10.9-5.36
			c-5.07-12.63-25.61-12.66-37.5-19.89c-3.95-2.4-7.23-6.1-8.26-11.39c-1.38-7.07,3.21-11.64,7.3-14.36
			c9.32-6.21,25.89-9.59,41.07-6.66c6.13,1.18,13.2,3.61,14.14,10.02c0.46,3.2-0.83,5.7-2.04,7.63c-2.83,4.52-7.45,8.46-11.54,10.82
			c-1.26,0.73-7.5,3.46-7.67,2.63C3065.91-1215.35,3066.59-1215.53,3067.83-1216.04z M3060.46-1187.05
			c-5.91,3.51-12.32,7.8-17.57,12.65c-2.16,1.99-4.41,4.31-5.76,7.07c-0.92,1.9-1.42,4.37,0.1,6.07c2.7,3.06,9.22,2.82,13.9,1.56
			c11.09-3.01,17.97-11.28,20.04-23.34c0.66-3.86,0.5-7.05-0.29-9.72C3067.91-1191.27,3064.41-1189.39,3060.46-1187.05z"/>
		<path d="M3085.16-1203.2c-0.12,3.85-0.89,10.68,0.62,13.62c0.22,0.11,0.53,0.16,0.86,0.16c2.02,0,3.77-1.45,5.12-2.45
			c1.55-1.15,2.89-2.39,3.95-3.42c2.13-2.07,3.35-3.51,3.73-3.3c0.38,0.21-0.14,2.12-1.98,4.78c-1.82,2.65-4.67,5.78-8.25,7.24
			c-2.81,1.16-5.84,0.31-6.8-1.97c-2.09-4.94-0.05-13.41,1.45-17.24C3085.23-1209.26,3085.2-1204.72,3085.16-1203.2z
			 M3082.96-1213.11c0.72-0.77,4.82-2.95,5.85-1.04c0.7,1.3-1.54,2.59-2.55,2.96C3084.45-1210.53,3080.94-1210.95,3082.96-1213.11z"
			/>
		<path d="M3102.67-1194.71c0.92-0.01,1.65-0.51,2.44-0.95c4.05-2.3,7.01-5.66,10.76-8.33c0.39-0.3,1.03-0.73,1.92-0.57
			c0.32,0.15,0.66,0.41,1.01,0.77c1.27,3.66,2.04,8.03,2.35,12.63c2.18-1.86,4.4-3.62,6.6-5.22c0.69-0.51,3.94-2.83,4.17-2.49
			c0.16,0.23-2.76,2.77-3.44,3.39c-2.32,2.15-4.76,4.46-7.2,6.88c0.36,11.32-1.89,23.47-6.09,29.64c-1.81,2.65-5.21,5.56-9.72,3.92
			c-3.98-1.38-6.71-5.03-5.11-10.42c1.58-5.42,5.36-9.91,8.56-13.58c2.78-3.19,5.8-6.28,8.93-9.17c-0.02-4.38-0.38-8.66-1.28-12.32
			c-3.35,2.46-6.26,5.42-10.05,7.45c-1.27,0.69-3.25,1.7-5.12,0.98c-2.71-1.09-3.72-4.26-2.8-7.82c1.41-5.41,5.1-10.03,9.13-12.7
			c2.11-1.4,5.63-2.62,7.99-0.48c0.67,0.61,1.09,1.3,1.37,1.88c0.84,1.74,0.72,2.79,0.66,2.81c0,0-1.93-3.18-2.77-3.77
			c-2.07-1.47-4.83,0.04-6.19,1.07c-3.32,2.52-6.64,6.96-7.68,11.8c-0.12,0.6-0.22,1.2-0.22,1.79
			C3100.89-1196.18,3101.37-1194.75,3102.67-1194.71z M3110.96-1177.33c-2.73,3.37-13.32,16.05-4.41,19.21
			c2.91,0.95,4.69-1.02,5.86-2.73c3.35-4.91,4.61-12.46,5.17-19.95c0.11-1.4,0.18-2.82,0.23-4.24
			C3115.41-1182.55,3113.09-1179.96,3110.96-1177.33z"/>
		<path d="M3134.42-1208.02c0.95,0.28-3.58,15.7-0.25,16.28c0,0-0.05-0.04,0.11-0.05c1.11-0.28,1.99-1.03,2.98-1.72
			c4.49-3.17,8.6-6.99,13.51-9.83c1.89-1.11,6.15-3.56,8.58-1.02c2.42,2.7,0.66,7.98,1.31,12.28c0.09,0.55,0.21,1.27,0.53,1.5
			c0.72,0.73,2.72-0.34,3.37-0.64c2.91-1.4,7.21-4.61,8.99-5.87c3.04-2.14,3.32-1.78,0.83,0.94c-2.09,2.28-6.88,7-11.03,8.31
			c-1.4,0.47-3.11,0.23-4.02-0.49c-2.83-2.38-1.44-7.66-2.01-12.28c-0.04-0.32-0.21-1.4-0.4-1.39c-0.01,0,0,0,0.02,0.01
			c0.02,0.01,0,0.01,0,0.01c-0.57-0.11-1.18,0.11-1.68,0.28c-3.59,1.22-6.73,3.89-9.58,5.99c-3.01,2.23-5.88,4.77-9.44,6.36
			c-0.36,0.17-0.79,0.33-1.28,0.44c-3.09,0.89-4.65-2.41-4.65-5.19C3130.29-1197.56,3133.37-1208.33,3134.42-1208.02z"/>
		<path d="M3191.66-1203.57c-4.03-1.44-8.56,1.64-10.63,3.8c-1.09,1.15-2.83,3.24-1.08,4.98c1.51,1.37,4.9-1.44,5.96-2.15
			c1.51-1.01,2.95-2.2,4.95-2.72c3.89-1.16,3.44,4.14,5.13,5.96c0.78,0.86,2.82,0.88,4.36,0.75c4.74-0.42,8.92-2.61,12.1-4.33
			c2.09-1.13,2.43-0.87,0.67,0.9c-2.76,2.79-7.29,5.47-12.41,6.3c-3.55,0.58-6.68-0.25-7.95-2.66c-0.63-1.19-0.82-2.19-1.3-3.3
			c-0.04-0.09-0.08-0.17-0.11-0.24c-1.26,0.4-2.52,1.52-3.54,2.2c-2.3,1.54-7.02,4.91-10.21,1.63c-1.55-1.56-2.1-4.34-0.83-6.69
			c1.72-3.16,5.09-5.33,8.77-6.28c3.24-0.85,6.47-0.25,7.95,1.66c0.68,0.89,0.66,1.51,0.55,1.57
			C3193.93-1202.11,3192.32-1203.34,3191.66-1203.57z M3191.68-1196.37c-0.01,0-0.03,0.01-0.04,0.01
			C3191.66-1196.35,3191.67-1196.36,3191.68-1196.37z"/>
		<path d="M3213.59-1220.43c0.44-0.03,1.06-0.06,1.82-0.09c0.18-1.62,0.46-4.14,0.92-8.47c0.38-3.57,0.61-5.63,0.92-5.64
			c0.85-0.02,0.85,6.23,0.52,14.01c7.81-0.32,22.12-0.75,22.12-0.08c0,0.27-14.4,0.87-22.17,1.22c-0.53,12.03-1.75,27.08-1.81,28.61
			c-0.14,3.81-0.45,8.38,0.86,11.14c1.3,2.61,6.44-3.62,7.32-4.63c2.54-2.93,10.83-14.25,11.32-13.94
			c0.93,0.58-6.95,12.83-9.16,15.71c-1.72,2.24-4.01,5.19-6.93,6.45c-8.16,3.6-7.08-13.05-6.49-20.65
			c0.35-4.47,0.85-8.98,1.29-12.86c0.89-7.72,0.83-6.85,1.16-9.7c-0.67,0.03-1.22,0.06-1.62,0.09c-4.22,0.25-26.22,1.82-26.26,1.32
			C3187.34-1218.61,3208.89-1220.16,3213.59-1220.43z"/>
		<path d="M3254.3-1206.43c4.86,1.06-0.04,10.76,2.61,12.93c3.18,2.6,18.4-5.85,19.08-4.72c0.93,1.55-17.63,12.19-21.61,6.28
			c-3.02-4.49,2.05-13.25-2.49-9.11c-2.73,2.49-5.94,5.38-9.19,7.54c-3.06,2.04-8.25,2.26-9.06-2.19
			c-0.88-4.83,0.62-12.94,2.77-12.76c4.36,0.37-2.39,12.5,1.47,13.02C3243.17-1194.7,3250.64-1207.23,3254.3-1206.43z"/>
		<path d="M3288.21-1197.49c-2.83,0.63-6.36,1.27-9.24,0.18c-2.39-0.93-4.08-3.16-4.81-5.55c-1.28-4.28,2.13-8.71,5.31-9.77
			c2.57-0.9,3.64,1.55,3.32,4.08c-0.38,2.94-1.36,6.17-3.05,8.06c2.99,1.18,7.33-0.57,11.46-0.9c0.99-0.09,1.72,0.03,2.49,0.45
			c0.45,0.53,1.26,1.17,1.05,1.91c-0.33,1.13-8.92,25.78,0.72,18.19c7.53-5.93,18.58-18.32,18.82-18.14
			c0.36,0.27-8.53,14.52-17.67,21.63c-14.32,11.14-7.3-17.06-5.66-20.77C3290.02-1198.04,3289.03-1197.67,3288.21-1197.49z
			 M3280.49-1210.53c-1.83-0.18-4.56,4.61-3.66,6.78c0.48,1.3,1.15,2.17,1.95,2.74c1.16-1.96,1.91-4.96,2.02-7.71
			c0.02-0.6,0.01-1.39-0.22-1.75c-0.04-0.05-0.06-0.07-0.08-0.08C3280.52-1210.54,3280.51-1210.53,3280.49-1210.53z"/>
		<path d="M3316.52-1197.95c1.68-1.06,4.46-2.93,5.01-5.32c0.45-1.91-1.12-2.72-2.61-1.84c-2.11,1.24-5.67,5.96-3.39,9.37
			c5.12,8.42,22.07-2.74,22.07-2.74c0,1.44-12.36,10.7-21,7.59c-2.57-0.93-5.13-3.28-5.13-7.06c0.03-4.61,2.84-8.23,5.91-9.91
			c3.29-1.79,6.82,0.34,6.86,3.63c0,3.41-3.17,5.52-5.32,6.43c-0.9,0.39-1.64,0.55-2.18,0.58
			C3315.54-1197.15,3315.84-1197.52,3316.52-1197.95z"/>
	</g>
	<g>
		<g>
			<line x1="3360.84" y1="-1196.93" x2="3566.9" y2="-1196.93"/>
			<rect x="3360.84" y="-1199.92" width="206.07" height="5.98"/>
		</g>
		<g>
			<line x1="2795.12" y1="-1196.93" x2="3002.05" y2="-1196.93"/>
			<rect x="2795.12" y="-1199.92" width="206.93" height="5.98"/>
		</g>
	</g>
</g>
<path class="st3" d="M1078.17-530.21c0.2-9.26,7.63-26.79,10.94-36.51c12.32-36.16,18.62-29.57,5.67-48.9
	c-22.18,0-8.47-0.14-18.22,3.13L883.8-584.53c-152.39,20.35-327.36,33.18-477.65-14.15c-23.19-7.3-63.75-29.74-63.75-2.71
	c0,6.42,4.17,10.04,8.93,12.43c12.89,6.47,71.04,23.05,88.88,27.41c13.98,3.41,24.23,5.66,39.26,8.2l124.02,13.64
	c15.71-0.15,26.67,2.39,45.08,2.39c46.26,0,77.75-2.04,121.21-6.95l39.68-3.04c14.27-2.12,37.11-5.79,52.72-6.62l201.75-28.47
	c-1.32,15.86-48.51,112.77,0.02,99.86c13.92-3.71,42.27-36.58,53.98-48.25c13.23-13.19,62.4-70.92,78.91-75.33l-25.22,72.06
	c-6.41,21.58-5.63,17.87-5.63,39.45c9.2,7.97,5.96,7.12,18.99,7.12c8.05,0,6.22-4.06,7.71-11.28l24.09-82.68
	c5.43-13.84,21.03-57.88-10.44-57.88c-28.35,0-75.67,55.48-99.09,78.88C1095.34-548.57,1086.35-535.69,1078.17-530.21
	L1078.17-530.21z M1265.67-663.07c4.59-8.68,6.83-14.42,11.1-24.49l69.59-139.22c3.53-7.19,5.93-16.61,16.62-16.61
	c16.64,0,14.77,15.63,7.95,29.3c-22.07,44.25-89.54,204.23-98.15,241.17l71.66-49.36c11.76-9.35,7.19-10.4,25.65-14.7l9.49,7.12
	c0,23.14-10.79,22.84-39.4,43.65c-7.86,5.72-36.8,28.06-43.67,29.9l42.72,21.35c74.35,30.25,30.74,2.44,71.2,11.86
	c1.57,6.73,2.37,4.06,2.37,9.49c0,11.77-11.53,22.94-28.06,22.36c-16.85-0.59-58.73-18.47-77.13-26.35
	c-32.51-13.93-34.52-19.26-45.83-9.36c-9.43,8.25-16.18,36.79-19.57,46.87l-25.54,81.36c-5.14,17.6,7.68,15.08-1.7,31.39
	c-0.52,0.91-5.1,7.62-5.77,8.47c-5.32,6.74-8.17,6.88-17.14,8.97c-17.86-11.95-14.58-18.25-2.64-54.84
	c2.36-7.23,3.32-12.53,5.89-20.21l41.58-129.26c2.49-7.69,3.4-11.97,6.43-19.67l13.16-36.67c1.92-5.41,3.49-11.42,6.05-17.68
	C1272.85-653.4,1269.9-644.94,1265.67-663.07z"/>
<g>
	<path class="st4" d="M2577.61-527.07c6.57,0,15.32-2.23,19.37-7.91c4.03-5.65-3.4-8.27-7.85-8.27c-6.57,0-15.32,2.23-19.37,7.91
		C2565.72-529.69,2573.15-527.07,2577.61-527.07z"/>
	<path class="st4" d="M3364.53-376.56c-11.52-9.04-29.37-11.47-43.19-14.38c-26.23-5.51-52.87-9.14-79.42-12.65
		c-75.98-10.03-152.29-17.47-228.46-25.81c-80.06-8.76-160.21-17.74-239.72-30.75c-31.37-5.13-62.7-10.92-93.49-18.81
		c-19.16-4.92-40.57-10.67-57.15-21.3c-6.59-4.23-12.58-9.07-12.74-16.85c-0.15-6.96-25.83-2.26-25.65,6.87
		c0.27,13.12,16.23,21.34,26.25,26.24c21.28,10.4,45.04,16.11,67.98,21.49c70.93,16.65,143.81,25.48,216.04,34.24
		c81.54,9.89,163.28,18.08,244.91,27.21c58.56,6.55,118.45,11.66,175.91,25.29c6.26,1.49,13.37,3.42,20.05,6.28
		c3.17,1.36,5.57,2.72,6.54,4.27c-0.54,0.15-1.07,0.32-1.61,0.46c-1.31,0.34-2.63,0.64-3.95,0.93c-1.06,0.21-2.13,0.4-3.19,0.59
		c-47.53,8.39-96.71,7.97-145.88,8.94c-159.19,3.14-318.6-0.88-477.73-5.19c-103.74-2.82-207.47-6.19-311.16-10.36
		c-1.03-0.04-2.06-0.08-3.09-0.13c-10.73-0.44-19.13,7.94-27.18,13.71c-12.15,8.71-24.81,16.68-37.81,24.06
		c-28.65,16.26-62.43,30.44-95.96,24.14c-26-4.88-44.38-23.36-56.57-45.37c10.58-0.22,21.23-2.02,31.32-4.17
		c23.05-4.89,45.76-14.54,65.71-26.98c13.72-8.55,31.05-20.88,34.96-37.66c3.73-16.03-15.63-21.94-28.08-23.44
		c-38.08-4.59-75.59,20.63-104.14,42.68c-18.08,13.96-34.9,29.44-51.14,45.51c10.24-19.59,20.95-38.95,31.84-58.17
		c8.29-14.64,16.79-29.16,25.43-43.6c12.99-11.29,25.78-22.75,38.38-34.3c26.28-24.08,51.87-49.03,75.92-75.35
		c15.03-16.45,31.03-33.8,41.15-53.87c9.82-19.48-10.97-21.7-26.26-17.86c-26.16,6.58-46.62,30.5-63.23,50.19
		c-34.14,40.45-63.37,85.51-90.38,131.58c-9.84,8.29-19.74,16.46-29.66,24.52c-34.44,27.96-70.24,55.21-108.59,77.83
		c2.79-2.46,5.52-5.01,8.14-7.68c16.96-17.2,49.66-63.15,26.16-86.81c-7.98-8.04-24.35-8.6-34.86-8.01
		c-14.64,0.82-28.91,4.97-42.27,10.89c-31.67,14.02-58.92,37.01-83.64,60.86c-7.93,7.65-15.68,15.5-23.28,23.51
		c1.12-2.45,2.26-4.88,3.38-7.33c7.89-17.39,15.77-34.9,22.21-52.89c3.61-10.09,8.3-22.2-7.97-20.44
		c-10.41,1.12-20.54,6.32-29.85,10.76c-14.42,6.88-28.53,14.38-42.56,22.01c-20.14,10.96-40.1,22.27-59.89,33.86
		c-3,1.76-8.19,6.68-2.53,8.96c5.49,2.21,13.22,0.18,18.09-2.67c27.99-16.39,56.27-32.37,85.09-47.26
		c5.35-2.77,10.73-5.47,16.2-8.01c-0.95,3.17-2.05,6.3-3.19,9.4c-14.09,38.3-31.49,75.7-49.87,112.52
		c-30.07,37.92-57.51,78.07-83.23,118.61c-18.45,29.08-36.04,58.83-51.51,89.61c-6.54,13.01-19.61,33.24-17.42,48.74
		c0.02,0.12,0.05,0.24,0.07,0.36c0.42,2.06,3.2,2.67,4.83,2.99c20.42,4.04,35.18-17.99,45.01-32.06
		c18.53-26.55,34.41-55.04,50.09-83.33c26.27-47.4,51.33-95.57,75.04-144.37c24.67-31.24,51.15-60.95,80.04-87.84
		c19.02-17.72,39.58-34.45,62.93-46.12c11.89-5.94,31.28-13.51,44.18-3.97c20.02,14.8-4.94,53.68-14.83,66.66
		c-22.07,28.96-56.04,48.43-92.74,37.59c-5.07-1.5-27.91,1.62-22.27,10.63c10.7,17.1,34.39,16.68,51.86,13.24
		c29.35-5.79,56.65-19.98,82.23-35.02c35.86-21.09,69.99-45.43,102.75-71.5c-5.75,10.25-11.43,20.51-17.06,30.73
		c-12.75,23.15-25.48,46.44-36.7,70.38c-1.59,3.38-6.68,11.01-1.13,13.24c12,4.83,22.68-5.42,30.19-13.08
		c11.7-11.93,23.23-23.99,35.06-35.75c11.09,23.96,27.64,44.22,52.87,54.72c24.86,10.35,53.04,8.16,78.62,2.07
		c41.52-9.88,79.41-33.16,113.74-58.1c87.26,3.53,174.56,6.39,261.85,8.92c160.91,4.68,321.98,8.66,482.96,7.02
		c56.73-0.58,113.91-1.13,170.38-7.15c15.28-1.63,31.38-3.43,45.74-9.23C3362.01-359.96,3374.91-368.41,3364.53-376.56z
		 M1717.94-112.61c9.5-18.09,19.77-35.78,30.44-53.22C1738.54-147.91,1728.43-130.14,1717.94-112.61z M2223.48-522.02
		c20.12-30.41,41.35-60.85,66.84-87.07c4.32-4.45,8.94-8.6,13.76-12.5c3.55-2.87,9.24-6.49,10.78-7.17c0.46-0.2,0.79-0.37,1.02-0.5
		c0.13,0.06,0.31,0.11,0.59,0.16c-0.3-0.05,0.07,0.35,0.21,0.34c0.16,0.58,0.24,1.19,0.25,1.77c0.06,2.98-4.53,10.98-7.17,15.06
		c-6.05,9.37-13.16,18.07-20.34,26.58c-23.57,27.93-49.34,54.25-76.3,79.33C2216.57-511.36,2219.98-516.72,2223.48-522.02z
		 M2251.83-431c10.86-3.22,21.71-2.17,31.08,4.51c10.52,7.49-10.52,26.19-15.29,29.99c-23.74,18.92-68.5,39.01-98.84,26.38
		c-0.88-0.37-2.56-0.52-4.62-0.46c2.28-2.14,4.58-4.26,6.9-6.36C2194.25-397.94,2221.22-421.92,2251.83-431z"/>
</g>
<g>
	<g>
		<g>
			<g>
				<path class="st4" d="M2054.77-206.97l-1.74-0.67l-1.33-0.49c-11.13-4.15-17.96-7.14-17.96-15.88c0-7.83,6.86-13.3,16.68-13.3
					c9.33,0,16.45,5.62,16.94,13.35c0.1,1.75,1.43,3.02,3.17,3.02h1.87c0.92,0,1.74-0.33,2.31-0.93c0.58-0.61,0.87-1.46,0.83-2.38
					c-0.62-11.99-11.42-21.02-25.13-21.02c-14.41,0-24.87,8.95-24.87,21.27c0,14.71,12.3,19.23,23.15,23.21l2.75,1.02
					c9.82,3.66,18.29,6.83,18.29,16.22c0,8.31-7.12,13.89-17.71,13.89c-12.19,0-19.78-5.46-20.32-14.59
					c-0.1-1.81-1.4-3.07-3.17-3.07h-1.87c-0.92,0-1.73,0.34-2.31,0.94c-0.58,0.6-0.88,1.44-0.83,2.37
					c0.62,13.56,11.81,22.32,28.5,22.32v0c15,0,25.9-9.2,25.9-21.86C2077.95-198.07,2065.64-202.8,2054.77-206.97z"/>
				<path class="st4" d="M2165.81-244.12h-1.83c-1.84,0-3.18,1.34-3.18,3.18v74.89c0,1.85,1.34,3.18,3.18,3.18h1.83
					c1.84,0,3.18-1.33,3.18-3.18v-74.89C2168.99-242.78,2167.65-244.12,2165.81-244.12z"/>
				<path class="st4" d="M2328.61-204.14h-31.94c-1.87,0-3.18,1.3-3.18,3.18v1.54c0,1.87,1.31,3.17,3.18,3.17h26.93l0.01,4.32
					c-1.35,15.38-15.31,22.26-28.55,22.26c-19.9,0-34.34-14.22-34.34-33.83c0-19.28,14.45-33.83,33.6-33.83
					c12.77,0,24.04,7.07,28.73,18.08c0.61,1.29,1.77,2.03,3.19,2.03h2.06c1.07,0,2-0.45,2.55-1.24c0.55-0.78,0.65-1.81,0.26-2.86
					c-5.66-14.34-20.45-23.97-36.79-23.97c-23.83,0-41.79,17.97-41.79,41.79c0,23.82,18.28,41.79,42.53,41.79
					c11.78,0,22.14-4.4,28.54-11.82v7.47c0,1.87,1.31,3.18,3.18,3.18h1.83c1.87,0,3.17-1.31,3.17-3.18v-34.9
					C2331.79-202.84,2330.48-204.14,2328.61-204.14z"/>
				<path class="st4" d="M2467.52-244.12h-1.83c-1.87,0-3.18,1.31-3.18,3.18v60.51l-36.79-61.91c-0.65-1.15-1.76-1.78-3.12-1.78
					h-1.7c-1.87,0-3.17,1.31-3.17,3.18v74.89c0,1.87,1.3,3.18,3.17,3.18h1.83c1.88,0,3.18-1.31,3.18-3.18v-60.51l36.8,61.92
					c0.65,1.14,1.76,1.77,3.12,1.77h1.69c1.87,0,3.17-1.31,3.17-3.18v-74.89C2470.7-242.81,2469.39-244.12,2467.52-244.12z"/>
				<path class="st4" d="M2589.56-241.94c-0.54-1.37-1.74-2.18-3.19-2.18h-2.54c-1.46,0-2.66,0.82-3.2,2.19l-29.39,74.98
					c-0.52,1.39-0.05,2.37,0.27,2.84c0.32,0.46,1.07,1.23,2.55,1.23h1.95c1.45,0,2.64-0.82,3.2-2.2l7.06-18.14h37.66l7.07,18.16
					c0.54,1.36,1.74,2.18,3.19,2.18h1.95c1.48,0,2.24-0.77,2.55-1.23c0.32-0.46,0.78-1.44,0.25-2.87L2589.56-241.94z
					 M2569.35-191.11l15.76-40.48l15.76,40.48H2569.35z"/>
				<path class="st4" d="M2736.85-244.12h-46.99c-1.84,0-3.18,1.34-3.18,3.18v1.54c0,1.85,1.33,3.18,3.18,3.18h19.4v70.17
					c0,1.85,1.34,3.18,3.17,3.18h1.84c1.84,0,3.17-1.33,3.17-3.18v-70.17h19.4c1.84,0,3.18-1.34,3.18-3.18v-1.54
					C2740.03-242.78,2738.7-244.12,2736.85-244.12z"/>
				<path class="st4" d="M2871.21-244.12h-1.84c-1.84,0-3.17,1.34-3.17,3.18v54.4c0,10.55-7.18,16.87-19.22,16.87
					c-12.03,0-19.21-6.31-19.21-16.87v-54.4c0-1.84-1.33-3.18-3.18-3.18h-1.84c-1.84,0-3.18,1.34-3.18,3.18v54.4
					c0,14.85,11.01,24.83,27.4,24.83c16.39,0,27.4-9.98,27.4-24.83v-54.4C2874.39-242.78,2873.05-244.12,2871.21-244.12z"/>
				<path class="st4" d="M2996.38-196.41c9.92-3.26,16.81-12.53,16.81-23.24c0-13.49-10.97-24.47-24.46-24.47h-24.23
					c-1.84,0-3.18,1.34-3.18,3.18v74.89c0,1.85,1.33,3.18,3.18,3.18h1.83c1.84,0,3.18-1.33,3.18-3.18v-29.13h17.46l27.32,30.99
					c0.77,0.87,1.76,1.31,2.93,1.31h2.36c1.27,0,2.3-0.61,2.77-1.61c0.47-1.02,0.24-2.21-0.61-3.2L2996.38-196.41z M2988.73-203.08
					h-19.22v-33.14h19.22c8.97,0,16.28,7.44,16.28,16.57C3005-210.51,2997.7-203.08,2988.73-203.08z"/>
				<path class="st4" d="M3144.33-170.78h-34.63v-29.1h31.33c1.84,0,3.18-1.34,3.18-3.17v-1.55c0-1.84-1.34-3.17-3.18-3.17h-31.33
					v-28.45h34.08c1.84,0,3.18-1.34,3.18-3.18v-1.54c0-1.84-1.33-3.18-3.18-3.18h-39.1c-1.84,0-3.17,1.34-3.17,3.18v74.89
					c0,1.85,1.34,3.18,3.17,3.18h39.65c1.85,0,3.18-1.33,3.18-3.18v-1.54C3147.51-169.44,3146.17-170.78,3144.33-170.78z"/>
			</g>
			<g>
				<path class="st4" d="M2199.24-99.98v28.77h-5.25v-28.77h-8.06v-5.24h21.24v5.24H2199.24z"/>
				<path class="st4" d="M2273.08-80.98h-10.68l-3.45,9.77h-5.83l12.15-34.01h4.96l12.15,34.01h-5.83L2273.08-80.98z M2264.23-86.17
					h6.95c-0.32-0.94-0.63-1.78-0.9-2.53c-0.27-0.75-0.54-1.48-0.8-2.21c-0.26-0.73-0.52-1.48-0.8-2.26
					c-0.28-0.78-0.59-1.69-0.94-2.72L2264.23-86.17z"/>
				<path class="st4" d="M2361.07-76.6c-1.46,1.69-3.14,3.04-5.05,4.06c-1.91,1.02-4.25,1.53-7,1.53c-2.59,0-4.89-0.49-6.9-1.48
					c-2.01-0.99-3.69-2.3-5.05-3.92c-1.37-1.61-2.4-3.47-3.11-5.56c-0.71-2.09-1.06-4.24-1.06-6.44c0-2.23,0.3-4.38,0.89-6.46
					c0.6-2.07,1.53-3.91,2.77-5.51c1.25-1.61,2.83-2.89,4.74-3.84c1.91-0.96,4.16-1.43,6.75-1.43c2.75,0,5.14,0.55,7.17,1.65
					c2.03,1.11,3.85,2.61,5.46,4.52l-3.84,3.4c-1.39-1.72-2.8-2.86-4.23-3.44c-1.43-0.59-2.91-0.88-4.47-0.88
					c-1.72,0-3.21,0.34-4.48,0.99c-1.26,0.67-2.31,1.56-3.13,2.68c-0.82,1.11-1.43,2.4-1.82,3.86c-0.38,1.46-0.58,2.96-0.58,4.51
					c0,1.56,0.25,3.07,0.75,4.52c0.51,1.46,1.23,2.75,2.17,3.89c0.94,1.13,2.09,2.04,3.45,2.72c1.36,0.68,2.9,1.02,4.61,1.02
					c1.33,0,2.57-0.17,3.72-0.51c1.14-0.34,2.23-0.96,3.23-1.87v-7.62h-9.13v-5.25h14.38v14.28L2361.07-76.6z"/>
				<path class="st4" d="M2411.84-71.21v-34.01h5.25v28.76h15.84v5.24H2411.84z"/>
				<path class="st4" d="M2483.45-71.21v-34.01h5.25v34.01H2483.45z"/>
				<path class="st4" d="M2562.65-71.21l-18.27-24.24v24.24h-5.15v-34.01h4.13l18.41,24.2v-24.2h5.15v34.01H2562.65z"/>
				<path class="st4" d="M2617.45-71.21v-34.01h20.99v5.24h-15.74v8.51h14.33v5.25h-14.33v9.77h15.89v5.24H2617.45z"/>
				<path class="st4" d="M2769.23-71.21v-15.01h-14.04v15.01h-5.25v-34.01h5.25v13.75h14.04v-13.75h5.25v34.01H2769.23z"/>
				<path class="st4" d="M2825.01-71.21v-34.01h20.99v5.24h-15.74v8.51h14.34v5.25h-14.34v9.77h15.89v5.24H2825.01z"/>
				<path class="st4" d="M2907.99-84.96h-6.08v13.75h-5.25v-34.01h12.92c1.39,0,2.7,0.26,3.91,0.8c1.22,0.53,2.29,1.26,3.21,2.19
					c0.92,0.92,1.65,2,2.18,3.23c0.54,1.24,0.8,2.55,0.8,3.94c0,2.04-0.56,3.88-1.67,5.54c-1.12,1.66-2.54,2.88-4.25,3.69
					l7.68,14.62h-5.93L2907.99-84.96z M2901.91-90.21h7.68c0.68,0,1.31-0.13,1.9-0.36c0.58-0.24,1.09-0.58,1.53-1.02
					c0.44-0.43,0.79-0.95,1.04-1.55c0.26-0.6,0.39-1.24,0.39-1.92c0-1.36-0.47-2.51-1.41-3.45c-0.93-0.94-2.09-1.43-3.45-1.46h-7.68
					V-90.21z"/>
				<path class="st4" d="M2971.97-71.21v-34.01h20.99v5.24h-15.74v8.51h14.33v5.25h-14.33v9.77h15.89v5.24H2971.97z"/>
			</g>
		</g>
	</g>
	<path class="st4" d="M2151.94-134.4h867.16v5.59h-867.16V-134.4z"/>
</g>
<g>
	<path d="M1785.05-971.57c15.2-51.7,33.71-68.13,41.21-76.99c11-13,25.53-22.14,41.85-28.58c10.2-4.03,20.68-5.61,31.07-1.18
		c12.76,5.44,17.03,17.59,11.09,30.1c-5.68,11.96-15.57,19.89-26.23,26.98c-17.23,11.46-35.74,18.91-58.34,16.78
		c3.19,7.41,8.24,11.37,13.27,15.01c13.7,9.92,29.57,14.51,45.91,17.74c30.56,6.03,61.51,6.3,92.44,5.35
		c22.06-0.67,44.09-2.52,66.12-4.06c20-1.4,39.97-3.14,59.96-4.66c24.76-1.88,49.5-4.38,74.3-5.35c28.52-1.12,57.09-0.37,84.55,8.87
		c10.63,3.58,21.29,7.96,25.36,20.11c3.73,11.12-5.1,24.02-16.77,24.84c-4.38,0.31-8.25-1.26-9.42-5.09c-0.85-2.77,0.5-6.5,1.67-9.5
		c0.73-1.89,2.87-3.28,4.5-4.75c3.89-3.5,4.02-6.49-0.72-8.38c-7.11-2.84-14.51-5.58-22.02-6.61c-15.46-2.12-31.09-4.39-46.62-4.23
		c-25.12,0.27-50.25,2.15-75.33,3.91c-20.9,1.47-41.73,3.88-62.62,5.61c-27.68,2.29-55.36,5.26-83.1,6.2
		c-23.32,0.79-46.74-0.61-70.09-1.57c-18.28-0.75-36.05-4.62-53.29-10.84c-15.14-5.46-28.61-13.41-39.17-25.81
		c-0.45-0.53-1.07-0.92-2.18-1.85c-4.73,9.44-9.19,18.61-13.88,27.65c-4.55,8.77-9.21,17.48-14.11,26.05
		c-1.61,2.82-3.91,5.38-6.32,7.59c-6.72,6.17-11.33,3.35-13.3-4.57c-1.3-5.22-0.71-10.94-0.77-16.44c-0.03-3.65,0.3-7.31,0.52-12.1
		c-5.11,2.08-9.32,4.1-13.72,5.52c-10.98,3.53-21.86,7.85-33.13,9.92c-25.81,4.73-32.97-11.76-33.49-30.28
		c-0.41-14.39,1.96-28.9,3.52-43.31c1.32-12.23,3.29-24.38,4.89-36.58c0.21-1.62,0.1-3.34-0.17-4.96c-1.11-6.51-5.18-8.79-9.96-4.32
		c-9.76,9.12-19.49,18.57-27.57,29.15c-20.32,26.6-39.47,54.1-59.6,80.85c-7.69,10.22-15.63,20.48-26.98,27.32
		c-8.82,5.32-16.41,3.17-20.48-6.39c-3.7-8.71-4.43-18.03-3.06-27.12c2.75-18.31,6.25-36.51,9.88-54.67
		c0.84-4.2,2.95-8.37,5.36-11.97c2.49-3.73,6.56-5.46,11.13-3.51c4.74,2.02,3.89,5.97,3.02,9.89c-3.69,16.66-7.71,33.26-10.83,50.02
		c-1.55,8.3-1.42,16.91-2.06,25.37c0.66,0.21,1.33,0.41,1.99,0.62c5.69-6.6,11.74-12.93,16.99-19.86
		c18.33-24.18,36.29-48.64,54.56-72.86c10.74-14.23,20.69-29.36,36.15-39.09c5.63-3.54,12.12-6.68,18.59-7.71
		c11.61-1.86,20.27,6.33,20.03,19.23c-0.24,13.35-2.2,26.67-3.53,39.99c-1.63,16.24-3.58,32.46-4.95,48.72
		c-0.28,3.28,1.01,6.91,2.33,10.07c1.6,3.83,4.86,6.3,9.24,5.5c7.52-1.38,15.26-2.4,22.35-5.06c9.24-3.47,18.04-8.2,26.81-12.82
		c2.1-1.11,4.38-3.74,4.75-5.98c3.63-22.1,6.09-44.42,10.42-66.37c6.29-31.87,13.19-63.65,21.03-95.16
		c9.78-39.29,22.72-77.57,40.92-113.9c9.97-19.9,22.12-38.23,39.19-52.87c10.47-8.97,22.01-15.93,35.79-18.64
		c17.75-3.49,33.67,6.64,38.06,24.28c4.56,18.35,1.24,36.12-4.05,53.7c-9.38,31.13-24.89,59.32-43.06,85.98
		c-21.82,32-44.17,63.66-67.04,94.92c-14.64,20.01-32.01,41.88-38.84,58.74c-6.84,16.86-14.94,35.47-15.52,42.96
		C1784.03-971.85,1784.54-971.71,1785.05-971.57z M1795.7-1052.62c0.66,0.51,1.33,1.03,1.99,1.54c0.92-1.54,1.68-3.21,2.78-4.61
		c13.25-16.92,26.63-33.74,39.83-50.69c23.98-30.8,46.32-62.73,65.81-96.59c12.05-20.94,22.89-42.47,28.82-66.03
		c2.59-10.28,4.5-20.82,2.38-31.64c-2.46-12.54-10.49-18.81-22.74-16.71c-3.72,0.64-7.41,2.22-10.8,3.98
		c-17.06,8.89-28.65,23.34-38.74,39.14c-14.65,22.96-24.14,48.33-31.77,74.17c-10.96,37.1-20.33,74.68-30.07,112.14
		C1800.16-1076.28,1798.16-1064.39,1795.7-1052.62z M1834.09-1021.38c3.7-0.41,7.45-0.6,11.11-1.27
		c19.56-3.61,34.96-13.99,46.68-29.77c1.68-2.27,2.67-7.07,1.39-8.95c-1.3-1.92-6.99-3.67-9.74-3.8
		c-11.54-0.55-21.22,4.72-31.61,13.19C1839.36-1041.6,1833.86-1021.83,1834.09-1021.38z"/>
	<g>
		<g>
			<path d="M1486.2-1013.37c11.71,1.57,22.76,7.52,34.76,8.81c18.05,1.93,35.1-6.7,49.7-16.38c8.01-5.31,0.51-18.31-7.57-12.95
				c-12.56,8.32-27.88,16.64-42.81,14.22c-11.64-1.89-22.32-7.12-34.08-8.69c-4.02-0.54-7.5,3.83-7.5,7.5
				C1478.7-1016.37,1482.16-1013.91,1486.2-1013.37L1486.2-1013.37z"/>
		</g>
	</g>
</g>
<path class="st3" d="M2689.26-1727.57c0.2-9.26,7.63-26.79,10.94-36.51c12.32-36.16,18.62-29.57,5.67-48.9
	c-22.18,0-8.47-0.14-18.22,3.13l-192.76,27.96c-152.39,20.35-327.36,33.18-477.65-14.15c-23.19-7.3-63.75-29.74-63.75-2.71
	c0,6.42,4.17,10.04,8.93,12.43c12.89,6.47,71.04,23.05,88.88,27.41c13.98,3.41,24.24,5.66,39.26,8.2l124.02,13.64
	c15.71-0.15,26.67,2.39,45.08,2.39c46.26,0,77.75-2.04,121.21-6.95l39.68-3.04c14.27-2.12,37.11-5.79,52.72-6.62l201.75-28.47
	c-1.32,15.86-48.51,112.77,0.02,99.86c13.92-3.71,42.27-36.58,53.98-48.25c13.23-13.19,62.4-70.92,78.91-75.33l-25.22,72.06
	c-6.41,21.58-5.63,17.87-5.63,39.45c9.2,7.97,5.96,7.12,18.99,7.12c8.05,0,6.22-4.06,7.71-11.28l24.09-82.68
	c5.43-13.84,21.03-57.88-10.44-57.88c-28.35,0-75.67,55.48-99.09,78.88C2706.43-1745.93,2697.44-1733.04,2689.26-1727.57
	L2689.26-1727.57z M2876.76-1860.43c4.59-8.68,6.83-14.42,11.1-24.49l69.59-139.22c3.53-7.19,5.93-16.61,16.62-16.61
	c16.64,0,14.77,15.63,7.95,29.3c-22.07,44.25-89.54,204.23-98.15,241.17l71.66-49.36c11.76-9.35,7.19-10.4,25.65-14.7l9.49,7.12
	c0,23.14-10.79,22.84-39.4,43.65c-7.86,5.72-36.8,28.06-43.67,29.9l42.72,21.35c74.35,30.25,30.74,2.44,71.2,11.86
	c1.57,6.73,2.37,4.06,2.37,9.49c0,11.77-11.53,22.94-28.06,22.36c-16.85-0.59-58.73-18.47-77.13-26.35
	c-32.51-13.93-34.52-19.26-45.83-9.36c-9.43,8.25-16.18,36.79-19.57,46.87l-25.54,81.36c-5.14,17.6,7.68,15.08-1.7,31.39
	c-0.52,0.91-5.1,7.62-5.77,8.47c-5.32,6.74-8.17,6.88-17.14,8.97c-17.86-11.95-14.58-18.25-2.64-54.84
	c2.36-7.23,3.32-12.53,5.89-20.21l41.58-129.26c2.49-7.69,3.4-11.97,6.43-19.67l13.16-36.67c1.92-5.41,3.49-11.42,6.05-17.68
	C2883.94-1850.76,2880.99-1842.29,2876.76-1860.43z"/>
<path class="st3" d="M2006.64-1602.86v-29.68h5.89l7.02,21.01c0.65,1.96,1.12,3.42,1.42,4.39c0.34-1.08,0.87-2.67,1.59-4.76
	l7.15-20.65h5.26v29.68h-3.77v-24.83l-8.66,24.83h-3.54l-8.57-25.28v25.28H2006.64L2006.64-1602.86z M2071.8-1602.86v-29.68h3.94
	v29.68H2071.8L2071.8-1602.86z M2112.49-1602.86v-29.68h4.04l15.57,23.3v-23.3h3.77v29.68h-4.04l-15.57-23.29v23.29H2112.49
	L2112.49-1602.86z M2173-1602.86v-29.68h3.94v29.68H2173L2173-1602.86z M2213.65-1602.86v-29.68h5.89l7.02,21.01
	c0.65,1.96,1.12,3.42,1.41,4.39c0.34-1.08,0.87-2.67,1.59-4.76l7.14-20.65h5.26v29.68h-3.77v-24.83l-8.66,24.83h-3.54l-8.57-25.28
	v25.28H2213.65L2213.65-1602.86z M2274.89-1602.86l11.39-29.68h4.32l12.08,29.68h-4.47l-3.43-8.99h-12.5l-3.22,8.99H2274.89
	L2274.89-1602.86z M2283.43-1615.04h10.11l-3.09-8.23c-0.93-2.5-1.64-4.57-2.13-6.2c-0.41,1.93-0.95,3.83-1.64,5.71L2283.43-1615.04
	L2283.43-1615.04z M2335.51-1602.86v-29.68h3.94v26.2h14.59v3.48H2335.51L2335.51-1602.86z M2411.5-1602.86v-29.68h10.22
	c2.31,0,4.07,0.14,5.29,0.42c1.7,0.39,3.15,1.11,4.35,2.13c1.57,1.33,2.74,3.01,3.51,5.07c0.78,2.06,1.17,4.41,1.17,7.06
	c0,2.25-0.26,4.25-0.79,5.99c-0.52,1.74-1.2,3.18-2.03,4.33c-0.83,1.14-1.73,2.04-2.71,2.69c-0.97,0.66-2.15,1.15-3.54,1.49
	c-1.39,0.34-2.98,0.5-4.77,0.5H2411.5L2411.5-1602.86z M2415.43-1606.34h6.33c1.96,0,3.49-0.18,4.6-0.54c1.11-0.37,2-0.88,2.66-1.54
	c0.93-0.93,1.65-2.19,2.17-3.77c0.52-1.58,0.78-3.48,0.78-5.73c0-3.11-0.51-5.5-1.53-7.17c-1.02-1.67-2.25-2.79-3.71-3.36
	c-1.05-0.41-2.74-0.61-5.08-0.61h-6.23V-1606.34L2415.43-1606.34z M2471.39-1602.86v-29.68h21.43v3.48h-17.5v9.12h16.38v3.48h-16.38
	v10.11h18.2v3.48H2471.39L2471.39-1602.86z M2527.55-1612.39l3.69-0.33c0.17,1.49,0.58,2.72,1.22,3.67
	c0.64,0.95,1.64,1.73,2.98,2.32c1.35,0.59,2.87,0.89,4.55,0.89c1.5,0,2.82-0.22,3.97-0.67c1.14-0.45,1.99-1.06,2.56-1.85
	c0.56-0.78,0.84-1.63,0.84-2.54c0-0.93-0.27-1.73-0.81-2.43c-0.54-0.69-1.43-1.27-2.67-1.75c-0.79-0.3-2.56-0.79-5.29-1.44
	c-2.73-0.66-4.64-1.27-5.73-1.85c-1.42-0.75-2.47-1.67-3.16-2.77c-0.7-1.1-1.04-2.33-1.04-3.69c0-1.51,0.43-2.91,1.28-4.21
	c0.85-1.3,2.09-2.3,3.72-2.97c1.63-0.68,3.45-1.02,5.45-1.02c2.2,0,4.14,0.35,5.82,1.06c1.68,0.71,2.97,1.75,3.88,3.13
	c0.9,1.37,1.39,2.93,1.46,4.68l-3.77,0.29c-0.2-1.87-0.88-3.29-2.05-4.24c-1.17-0.96-2.89-1.44-5.17-1.44
	c-2.38,0-4.11,0.43-5.2,1.31c-1.08,0.87-1.63,1.92-1.63,3.15c0,1.06,0.39,1.94,1.15,2.63c0.76,0.68,2.73,1.39,5.92,2.11
	c3.19,0.73,5.38,1.35,6.57,1.89c1.72,0.79,3,1.8,3.82,3.02c0.82,1.22,1.23,2.62,1.23,4.21c0,1.58-0.45,3.06-1.36,4.45
	c-0.9,1.4-2.2,2.48-3.89,3.25c-1.69,0.78-3.59,1.16-5.71,1.16c-2.68,0-4.93-0.4-6.74-1.18c-1.82-0.78-3.23-1.96-4.26-3.53
	C2528.14-1608.63,2527.61-1610.41,2527.55-1612.39L2527.55-1612.39z M2587.03-1602.86v-29.68h3.94v29.68H2587.03L2587.03-1602.86z
	 M2641.64-1614.5v-3.48h12.56v11c-1.93,1.53-3.92,2.69-5.97,3.47c-2.05,0.78-4.16,1.16-6.31,1.16c-2.92,0-5.56-0.62-7.95-1.87
	c-2.38-1.24-4.18-3.05-5.39-5.41c-1.21-2.36-1.82-5-1.82-7.91c0-2.89,0.6-5.58,1.81-8.09c1.21-2.5,2.94-4.36,5.21-5.57
	c2.27-1.21,4.88-1.82,7.83-1.82c2.14,0,4.08,0.35,5.82,1.04c1.73,0.7,3.09,1.66,4.08,2.9c0.99,1.24,1.73,2.87,2.24,4.87l-3.54,0.97
	c-0.45-1.51-1-2.7-1.66-3.57c-0.67-0.86-1.61-1.55-2.83-2.07c-1.22-0.52-2.58-0.78-4.08-0.78c-1.79,0-3.34,0.28-4.65,0.82
	c-1.3,0.54-2.35,1.26-3.16,2.16c-0.8,0.89-1.43,1.87-1.87,2.93c-0.76,1.85-1.13,3.84-1.13,5.98c0,2.65,0.45,4.87,1.36,6.66
	c0.91,1.78,2.24,3.11,3.97,3.97c1.74,0.86,3.59,1.3,5.54,1.3c1.7,0,3.36-0.33,4.97-0.99c1.62-0.66,2.84-1.36,3.68-2.11v-5.56
	H2641.64L2641.64-1614.5z M2689.84-1602.86v-29.68h4.04l15.57,23.3v-23.3h3.77v29.68h-4.04l-15.57-23.29v23.29H2689.84z"/>
<text transform="matrix(1 0 0 0.9 1554.5723 -861.6445)" class="st8" style="font-size:60px; letter-spacing:12;">NICOLE KAUFFMAN</text>
<text transform="matrix(1 0 0 0.9 1731.3837 -807.9426)" class="st11 st10" style="font-size:44px;">ART &amp; DESIGN</text>
<line class="st5" x1="1560.03" y1="-820" x2="1717.94" y2="-820"/>
<line class="st5" x1="2072.99" y1="-820" x2="2230.9" y2="-820"/>
<g>
	<path class="st6" d="M105.6,117.69c3.98-13.53,8.82-17.83,10.78-20.14c2.88-3.4,6.68-5.79,10.95-7.48
		c2.67-1.05,5.41-1.47,8.13-0.31c3.34,1.42,4.46,4.6,2.9,7.88c-1.49,3.13-4.07,5.2-6.86,7.06c-4.51,3-9.35,4.95-15.27,4.39
		c0.83,1.94,2.16,2.98,3.47,3.93c3.58,2.6,7.74,3.8,12.01,4.64c8,1.58,16.09,1.65,24.19,1.4c5.77-0.18,11.54-0.66,17.3-1.06
		c5.23-0.37,10.46-0.82,15.69-1.22c6.48-0.49,12.95-1.15,19.44-1.4c7.46-0.29,14.94-0.1,22.12,2.32c2.78,0.94,5.57,2.08,6.64,5.26
		c0.98,2.91-1.34,6.29-4.39,6.5c-1.15,0.08-2.16-0.33-2.47-1.33c-0.22-0.73,0.13-1.7,0.44-2.49c0.19-0.49,0.75-0.86,1.18-1.24
		c1.02-0.92,1.05-1.7-0.19-2.19c-1.86-0.74-3.8-1.46-5.76-1.73c-4.04-0.56-8.13-1.15-12.2-1.11c-6.57,0.07-13.15,0.56-19.71,1.02
		c-5.47,0.38-10.92,1.01-16.38,1.47c-7.24,0.6-14.49,1.38-21.74,1.62c-6.1,0.21-12.23-0.16-18.34-0.41
		c-4.78-0.2-9.43-1.21-13.94-2.84c-3.96-1.43-7.49-3.51-10.25-6.75c-0.12-0.14-0.28-0.24-0.57-0.48c-1.24,2.47-2.4,4.87-3.63,7.24
		c-1.19,2.29-2.41,4.57-3.69,6.82c-0.42,0.74-1.02,1.41-1.65,1.99c-1.76,1.61-2.97,0.88-3.48-1.2c-0.34-1.37-0.19-2.86-0.2-4.3
		c-0.01-0.96,0.08-1.91,0.13-3.17c-1.34,0.54-2.44,1.07-3.59,1.44c-2.87,0.92-5.72,2.05-8.67,2.6c-6.75,1.24-8.63-3.08-8.76-7.92
		c-0.11-3.77,0.51-7.56,0.92-11.33c0.35-3.2,0.86-6.38,1.28-9.57c0.06-0.42,0.03-0.87-0.05-1.3c-0.29-1.7-1.36-2.3-2.61-1.13
		c-2.55,2.39-5.1,4.86-7.21,7.63c-5.32,6.96-10.33,14.15-15.6,21.15c-2.01,2.68-4.09,5.36-7.06,7.15c-2.31,1.39-4.29,0.83-5.36-1.67
		c-0.97-2.28-1.16-4.72-0.8-7.1c0.72-4.79,1.64-9.55,2.58-14.31c0.22-1.1,0.77-2.19,1.4-3.13c0.65-0.97,1.72-1.43,2.91-0.92
		c1.24,0.53,1.02,1.56,0.79,2.59c-0.97,4.36-2.02,8.7-2.83,13.09c-0.4,2.17-0.37,4.42-0.54,6.64c0.17,0.05,0.35,0.11,0.52,0.16
		c1.49-1.73,3.07-3.38,4.45-5.2c4.8-6.33,9.5-12.73,14.28-19.06c2.81-3.72,5.41-7.68,9.46-10.23c1.47-0.93,3.17-1.75,4.86-2.02
		c3.04-0.49,5.3,1.66,5.24,5.03c-0.06,3.49-0.57,6.98-0.92,10.46c-0.43,4.25-0.94,8.49-1.29,12.75c-0.07,0.86,0.26,1.81,0.61,2.63
		c0.42,1,1.27,1.65,2.42,1.44c1.97-0.36,3.99-0.63,5.85-1.32c2.42-0.91,4.72-2.15,7.01-3.36c0.55-0.29,1.15-0.98,1.24-1.56
		c0.95-5.78,1.59-11.62,2.73-17.37c1.64-8.34,3.45-16.65,5.5-24.9c2.56-10.28,5.94-20.3,10.71-29.8c2.61-5.21,5.79-10,10.25-13.83
		c2.74-2.35,5.76-4.17,9.36-4.88c4.64-0.91,8.81,1.74,9.96,6.35c1.19,4.8,0.32,9.45-1.06,14.05c-2.45,8.15-6.51,15.52-11.27,22.5
		c-5.71,8.37-11.56,16.66-17.54,24.84c-3.83,5.24-8.37,10.96-10.16,15.37c-1.79,4.41-3.91,9.28-4.06,11.24
		C105.34,117.62,105.47,117.66,105.6,117.69z M108.39,96.49c0.17,0.13,0.35,0.27,0.52,0.4c0.24-0.4,0.44-0.84,0.73-1.21
		c3.47-4.43,6.97-8.83,10.42-13.26c6.27-8.06,12.12-16.41,17.22-25.27c3.15-5.48,5.99-11.11,7.54-17.28
		c0.68-2.69,1.18-5.45,0.62-8.28c-0.64-3.28-2.74-4.92-5.95-4.37c-0.97,0.17-1.94,0.58-2.83,1.04c-4.46,2.33-7.5,6.11-10.14,10.24
		c-3.83,6.01-6.32,12.65-8.31,19.41c-2.87,9.71-5.32,19.54-7.87,29.34C109.56,90.3,109.03,93.41,108.39,96.49z M118.44,104.66
		c0.97-0.11,1.95-0.16,2.91-0.33c5.12-0.94,9.15-3.66,12.21-7.79c0.44-0.59,0.7-1.85,0.36-2.34c-0.34-0.5-1.83-0.96-2.55-0.99
		c-3.02-0.14-5.55,1.24-8.27,3.45C119.81,99.37,118.38,104.54,118.44,104.66z"/>
	<g>
		<g>
			<path class="st6" d="M26.91,106.6c3.32,0.51,6.38,2.1,9.75,2.38c4.72,0.4,8.96-1.8,12.81-4.28c2.02-1.3,0.14-4.55-1.89-3.24
				c-3.62,2.33-7.49,4.46-11.92,3.6c-2.64-0.51-5.07-1.67-7.75-2.07C25.54,102.62,24.53,106.24,26.91,106.6L26.91,106.6z"/>
		</g>
	</g>
</g>
<text transform="matrix(1 0 0 0.9 45.2964 146.4561)" class="st7 st8 st9 st10">NICOLE KAUFFMAN</text>
<text transform="matrix(1 0 0 0.9 91.561 160.5078)" class="st7 st11 st12">ART &amp; DESIGN</text>
<line class="st13" x1="46.73" y1="157.35" x2="88.04" y2="157.35"/>
<line class="st13" x1="180.95" y1="157.35" x2="222.26" y2="157.35"/>
</svg>
